<!DOCTYPE svg PUBLIC "-//W3C//DTD SVG 1.1//EN" "http://www.w3.org/Graphics/SVG/1.1/DTD/svg11.dtd">
<!-- Uploaded to: SVG Repo, www.svgrepo.com, Transformed by: SVG Repo Mixer Tools -->
<svg fill="#ffffff" width="64px" height="64px" viewBox="-9.6 -9.6 43.20 43.20" xmlns="http://www.w3.org/2000/svg" data-name="Layer 1" stroke="#ffffff">
<g id="SVGRepo_bgCarrier" stroke-width="0"/>
<g id="SVGRepo_tracerCarrier" stroke-linecap="round" stroke-linejoin="round"/>
<g id="SVGRepo_iconCarrier">
<path d="M18.97021,19.75732,15.34912,5.27246A2.9958,2.9958,0,0,0,12.43848,3h-.877A2.9958,2.9958,0,0,0,8.65088,5.27246L5.02979,19.75732a1.0001,1.0001,0,0,0,1.94042.48536L8.28082,15h7.43836l1.31061,5.24268a1.0001,1.0001,0,0,0,1.94042-.48536ZM8.78082,13l1.81049-7.24219A.99825.99825,0,0,1,11.56152,5h.877a.99825.99825,0,0,1,.97021.75781L15.21918,13Z"/>
</g>
</svg>